<svg width="24" height="24" viewBox="0 0 24 24" fill="none" xmlns="http://www.w3.org/2000/svg">
<path d="M4.81998 14.2108C4.33774 13.1266 4.13924 11.9375 4.24316 10.7555C4.34707 9.57341 4.74998 8.43722 5.41398 7.45378C6.85598 5.31678 11.58 3.43278 19.584 1.80078C19.316 8.65178 18.462 13.1458 17.021 15.2828C16.0116 16.7791 14.4633 17.8277 12.6993 18.2097C10.9353 18.5916 9.0919 18.2775 7.55398 17.3328C8.11475 16.3455 8.8906 15.4972 9.82398 14.8508L10.331 14.4988C10.767 14.1967 11.0652 13.7338 11.1599 13.2119C11.2546 12.69 11.1381 12.1518 10.836 11.7158C10.5339 11.2798 10.071 10.9816 9.54907 10.8869C9.02715 10.7922 8.48899 10.9087 8.05298 11.2108L7.54598 11.5628C6.49753 12.2887 5.57642 13.1831 4.81998 14.2098V14.2108ZM5.56598 21.0708C5.56598 21.336 5.46062 21.5904 5.27309 21.7779C5.08555 21.9654 4.8312 22.0708 4.56598 22.0708C4.30076 22.0708 4.04641 21.9654 3.85887 21.7779C3.67134 21.5904 3.56598 21.336 3.56598 21.0708C3.56598 17.6048 5.26598 14.3588 8.11598 12.3848L8.62298 12.0328C8.84099 11.8817 9.11007 11.8235 9.37102 11.8708C9.63198 11.9182 9.86344 12.0673 10.0145 12.2853C10.1655 12.5033 10.2238 12.7724 10.1764 13.0333C10.1291 13.2943 9.97999 13.5257 9.76198 13.6768L9.25498 14.0288C8.11682 14.8171 7.18668 15.8696 6.54421 17.096C5.90174 18.3224 5.56608 19.6863 5.56598 21.0708V21.0708Z" fill="black"/>
</svg>
