<svg width="17" height="21" viewBox="0 0 17 21" fill="none" xmlns="http://www.w3.org/2000/svg">
<path d="M3.17 14.946C2.40328 16.258 1.99946 17.7504 2 19.27C2 19.5352 1.89464 19.7896 1.70711 19.9771C1.51957 20.1646 1.26522 20.27 1 20.27C0.734784 20.27 0.48043 20.1646 0.292893 19.9771C0.105357 19.7896 0 19.5352 0 19.27C0 17.147 0.637 15.107 1.785 13.391C1.03372 12.2379 0.638924 10.8889 0.649951 9.51266C0.660977 8.13642 1.07734 6.79395 1.847 5.653C3.289 3.516 8.013 1.632 16.017 0C15.749 6.851 14.895 11.345 13.454 13.482C12.9066 14.2936 12.1951 14.9813 11.3654 15.5008C10.5357 16.0203 9.60629 16.36 8.63714 16.498C7.668 16.636 6.68069 16.5691 5.73898 16.3018C4.79727 16.0345 3.92211 15.5726 3.17 14.946V14.946ZM4.376 13.346C4.91069 13.8093 5.5376 14.1538 6.21531 14.3568C6.89302 14.5598 7.6061 14.6167 8.30742 14.5237C9.00875 14.4307 9.68235 14.1899 10.2837 13.8173C10.8851 13.4446 11.4005 12.9486 11.796 12.362C12.8 10.874 13.533 7.547 13.88 2.512C7.937 3.899 4.417 5.421 3.505 6.772C3.0156 7.49703 2.72506 8.33781 2.66241 9.21032C2.59976 10.0828 2.7672 10.9565 3.148 11.744C3.578 11.321 4.045 10.933 4.548 10.584L5.056 10.232C5.27401 10.081 5.54309 10.0227 5.80404 10.0701C6.065 10.1174 6.29646 10.2665 6.4475 10.4845C6.59854 10.7025 6.65679 10.9716 6.60944 11.2325C6.56209 11.4935 6.41301 11.725 6.195 11.876L5.688 12.228C5.21414 12.5559 4.77458 12.9308 4.376 13.347V13.346Z" fill="black"/>
</svg>
