<svg width="20" height="20" viewBox="0 0 20 20" fill="none" xmlns="http://www.w3.org/2000/svg">
<path d="M5.99843 0.400024C2.91123 0.400024 0.399994 2.91359 0.399994 6.00159V14.0016C0.399994 17.0888 2.91356 19.6 6.00156 19.6H14.0016C17.0888 19.6 19.6 17.0865 19.6 13.9985V5.99846C19.6 2.91126 17.0864 0.400024 13.9984 0.400024H5.99843ZM15.6 3.60002C16.0416 3.60002 16.4 3.95842 16.4 4.40002C16.4 4.84162 16.0416 5.20002 15.6 5.20002C15.1584 5.20002 14.8 4.84162 14.8 4.40002C14.8 3.95842 15.1584 3.60002 15.6 3.60002ZM9.99999 5.20002C12.6472 5.20002 14.8 7.35282 14.8 10C14.8 12.6472 12.6472 14.8 9.99999 14.8C7.35279 14.8 5.19999 12.6472 5.19999 10C5.19999 7.35282 7.35279 5.20002 9.99999 5.20002ZM9.99999 6.80002C9.1513 6.80002 8.33737 7.13717 7.73725 7.73728C7.13714 8.3374 6.79999 9.15133 6.79999 10C6.79999 10.8487 7.13714 11.6626 7.73725 12.2628C8.33737 12.8629 9.1513 13.2 9.99999 13.2C10.8487 13.2 11.6626 12.8629 12.2627 12.2628C12.8629 11.6626 13.2 10.8487 13.2 10C13.2 9.15133 12.8629 8.3374 12.2627 7.73728C11.6626 7.13717 10.8487 6.80002 9.99999 6.80002V6.80002Z" fill="#F9F9F9"/>
</svg>
