<svg width="22" height="18" viewBox="0 0 22 18" fill="none" xmlns="http://www.w3.org/2000/svg">
<path d="M11 0.199951C7.65121 0.199951 3.30469 1.03901 3.30469 1.03901L3.29376 1.05151C1.76854 1.29544 0.600006 2.60605 0.600006 4.19995V8.99995V9.00151V13.8V13.8015C0.601494 14.5627 0.874302 15.2985 1.36944 15.8767C1.86459 16.4549 2.54963 16.8376 3.30157 16.9562L3.30469 16.9609C3.30469 16.9609 7.65121 17.8015 11 17.8015C14.3488 17.8015 18.6953 16.9609 18.6953 16.9609L18.6969 16.9593C19.4496 16.841 20.1355 16.458 20.631 15.8791C21.1265 15.3002 21.3992 14.5635 21.4 13.8015V13.8V9.00151V8.99995V4.19995C21.3989 3.43845 21.1262 2.70231 20.6311 2.1238C20.1359 1.54528 19.4506 1.16231 18.6984 1.0437L18.6953 1.03901C18.6953 1.03901 14.3488 0.199951 11 0.199951ZM8.60001 5.3187L15 8.99995L8.60001 12.6812V5.3187Z" fill="#F9F9F9"/>
</svg>
